<?xml version="1.0" encoding="UTF-8"?><svg id="Layer_1" xmlns="http://www.w3.org/2000/svg" viewBox="0 0 386.44 56.5"><defs><style>.cls-1{fill:#fff;}.cls-2{fill:#e20a16;}</style></defs><path class="cls-1" d="M56.07,8.42c-3.29,0-5.94,2.65-5.94,5.94v22.26c0,3.29,2.65,5.94,5.94,5.94h7.91v4.45h7.42v-4.45h8.41c3.29,0,5.94-2.65,5.94-5.94V14.36c0-3.29-2.65-5.94-5.94-5.94h-23.74Zm1.48,5.94h20.28v21.76h-6.43v-3.46h-7.42v3.46h-6.43V14.36Z"/><path class="cls-1" d="M15.02,8.42c-3.29,0-5.94,2.65-5.94,5.94v7.91c0,3.29,2.65,5.94,5.94,5.94h22.75v7.91H8.1v.49c0,3.29,2.65,5.94,5.94,5.94h24.24c3.29,0,5.94-2.65,5.94-5.94v-8.9c0-3.29-2.65-5.94-5.94-5.94H15.52v-7.42h21.27v2.97h6.92v-2.97c0-3.29-2.65-5.94-5.94-5.94H15.02Z"/><path class="cls-1" d="M91.69,8.42v28.19c0,3.29,2.65,5.94,5.94,5.94h21.27c3.29,0,5.94-2.65,5.94-5.94V8.42h-7.42v27.7h-18.3V8.42h-7.42Z"/><path class="cls-1" d="M143.37,8.92l-17.06,33.63h7.42l3.77-7.42h19.17l3.77,7.42h7.42l-17.06-33.63-.25-.49h-6.92l-.25,.49Zm3.71,7.31l6.58,12.97h-13.17l6.58-12.97Z"/><path class="cls-1" d="M171.32,8.42V42.55h7.42v-12.86h4.7l12.37,12.86h9.89l-12.37-12.86h3.71c3.29,0,5.94-2.65,5.94-5.94V14.36c0-3.29-2.65-5.94-5.94-5.94h-25.72Zm7.42,5.94h14.84c1.1,0,1.98,.88,1.98,1.98v5.44c0,1.1-.88,1.98-1.98,1.98h-14.84V14.36Z"/><path class="cls-1" d="M209.4,8.42V42.55h28.69v-6.43h-21.27V14.36h21.27v-5.94h-28.69Z"/><rect class="cls-2" x="223.25" y="21.78" width="12.37" height="6.43"/><path class="cls-1" d="M253.92,8.42V42.55h28.69v-6.43h-21.27V14.36h21.27v-5.94h-28.69Z"/><rect class="cls-2" x="267.77" y="21.78" width="12.37" height="6.43"/><path class="cls-1" d="M288.54,8.42V42.55h6.92V18.41l17.81,21.24,.49,.59,1.95,2.32h4.98V8.42h-7.42V31.39l-17.81-21.24-1.45-1.73h-5.47Z"/><rect class="cls-1" x="326.63" y="8.42" width="7.91" height="34.13"/><path class="cls-1" d="M338.47,8.42l14.85,16.49-14.95,17.64h8.9l10.63-12.54,11.28,12.54h8.9l-15.87-17.64,13.99-16.49h-8.9l-9.68,11.41-10.26-11.41h-8.9Z"/></svg>