<?xml version="1.0" encoding="UTF-8"?>
<svg width="435px" height="449px" viewBox="0 0 435 449" version="1.1" xmlns="http://www.w3.org/2000/svg" xmlns:xlink="http://www.w3.org/1999/xlink">
    <title>amazon</title>
    <g id="Portfolio-ENG" stroke="none" stroke-width="1" fill="none" fill-rule="evenodd">
        <g id="amazon" transform="translate(0.103921, 0.175000)" fill="#FFFFFF" fill-rule="nonzero">
            <path d="M250.171079,130.7 C201.471079,132.5 80.6710794,146.2 80.6710794,248.2 C80.6710794,357.7 218.971079,362.2 264.171079,291.4 C270.671079,301.6 299.571079,328.9 309.471079,338.2 L366.271079,282.2 C366.271079,282.2 333.971079,256.9 333.971079,229.4 L333.971079,82.3 C333.971079,57 309.471079,0 221.671079,0 C133.671079,0 86.9710794,55 86.9710794,104.3 L160.471079,111.1 C176.771079,61.6 214.671079,61.6 214.671079,61.6 C255.371079,61.5 250.171079,91.4 250.171079,130.7 Z M250.171079,217.5 C250.171079,297.5 165.971079,285.5 165.971079,234.7 C165.971079,187.5 216.471079,178 250.171079,176.9 L250.171079,217.5 L250.171079,217.5 Z M386.171079,381 C378.471079,391 316.171079,448 211.671079,448 C107.171079,448 27.1710794,376.5 2.67107941,347 C-4.12892059,339.3 3.67107941,335.7 8.17107941,338.7 C81.4710794,383.2 195.971079,456.5 380.671079,369 C388.171079,365.3 393.971079,371 386.171079,381 Z M425.971079,383.2 C419.471079,399 409.971079,410 404.771079,414.2 C399.271079,418.7 395.271079,416.9 398.271079,410.4 C401.271079,403.9 417.571079,363.9 410.971079,355.4 C404.471079,347.1 373.971079,351.1 362.971079,352.2 C352.171079,353.2 349.971079,354.2 348.971079,351.9 C346.671079,346.2 370.671079,336.4 386.471079,334.4 C402.171079,332.6 427.471079,333.6 432.471079,340.1 C436.171079,345.2 432.471079,367.2 425.971079,383.2 Z" id="Shape"></path>
        </g>
    </g>
</svg>