<svg width="640" height="512" viewBox="0 0 640 512" fill="none" xmlns="http://www.w3.org/2000/svg">
<path d="M192 64C86 64 0 150 0 256C0 362 86 448 192 448H448C554 448 640 362 640 256C640 150 554 64 448 64H192ZM496 248C473.9 248 456 230.1 456 208C456 185.9 473.9 168 496 168C518.1 168 536 185.9 536 208C536 230.1 518.1 248 496 248ZM472 304C472 326.1 454.1 344 432 344C409.9 344 392 326.1 392 304C392 281.9 409.9 264 432 264C454.1 264 472 281.9 472 304ZM168 200C168 186.7 178.7 176 192 176C205.3 176 216 186.7 216 200V232H248C261.3 232 272 242.7 272 256C272 269.3 261.3 280 248 280H216V312C216 325.3 205.3 336 192 336C178.7 336 168 325.3 168 312V280H136C122.7 280 112 269.3 112 256C112 242.7 122.7 232 136 232H168V200Z" fill="white"/>
</svg>
