<?xml version="1.0" encoding="UTF-8"?>
<svg width="389px" height="121px" viewBox="0 0 389 121" version="1.1" xmlns="http://www.w3.org/2000/svg" xmlns:xlink="http://www.w3.org/1999/xlink">
    <title>Group 16</title>
    <g id="Portfolio-ENG" stroke="none" stroke-width="1" fill="none" fill-rule="evenodd">
        <g id="Group-16">
            <g id="Group-6">
                <rect id="Rectangle" stroke="#9CFF12" stroke-width="3" x="1.5" y="1.5" width="90" height="25"></rect>
                <path d="M20.7504883,19 L20.7504883,17.1542969 L16.293457,17.1542969 L16.293457,14.7822266 L20.0668945,14.7822266 L20.0668945,12.9980469 L16.293457,12.9980469 L16.293457,10.8994141 L20.7641602,10.8994141 L20.7641602,9.046875 L13.894043,9.046875 L13.894043,19 L20.7504883,19 Z M34.1274414,19 L34.1274414,16.375 L35.1118164,15.2949219 L37.230957,19 L40.074707,19 L36.7114258,13.4492188 L40.074707,9.046875 L37.1079102,9.046875 L34.9614258,12.1708984 L34.1274414,13.4355469 L34.1274414,9.046875 L31.7280273,9.046875 L31.7280273,19 L34.1274414,19 Z M53.0825195,19 L53.0825195,15.0351562 L56.9516602,15.0351562 L56.9516602,13.1894531 L53.0825195,13.1894531 L53.0825195,10.8994141 L57.3413086,10.8994141 L57.3413086,9.046875 L50.6831055,9.046875 L50.6831055,19 L53.0825195,19 Z M70.7387695,19 L70.7387695,16.6757812 L70.5063477,11.9111328 L72.9194336,19 L74.5053711,19 L76.9116211,11.9179688 L76.6791992,16.6757812 L76.6791992,19 L79.0854492,19 L79.0854492,9.046875 L75.9272461,9.046875 L73.7124023,15.9716797 L71.4907227,9.046875 L68.3393555,9.046875 L68.3393555,19 L70.7387695,19 Z" id="EKFM" fill="#9CFF12" fill-rule="nonzero"></path>
            </g>
            <path d="M15.9312933,77 L20.4526559,57.0480769 L25.0687067,77 L33.6853349,77 L41,42 L32.7621247,42 L28.8088915,63.9471154 L24.0034642,42 L16.9491917,42 L12.2147806,63.9471154 L8.26154734,42 L0,42 L7.33833718,77 L15.9312933,77 Z M68.9522388,77 L68.9522388,70.5096154 L53.3820896,70.5096154 L53.3820896,62.1682692 L66.5641791,62.1682692 L66.5641791,55.8942308 L53.3820896,55.8942308 L53.3820896,48.5144231 L69,48.5144231 L69,42 L45,42 L45,77 L68.9522388,77 Z M86.1462766,77 C90.3909574,76.9679487 93.5944149,76.0905449 95.7566489,74.3677885 C97.918883,72.6450321 99,70.0689103 99,66.6394231 C99,64.7483974 98.5132979,63.1458333 97.5398936,61.8317308 C96.5664894,60.5176282 95.1702128,59.6201923 93.3510638,59.1394231 C94.962766,58.5304487 96.1835106,57.5849359 97.0132979,56.3028846 C97.8430851,55.0208333 98.2579787,53.474359 98.2579787,51.6634615 C98.2579787,48.5224359 97.0890957,46.1266026 94.7513298,44.4759615 C92.4135638,42.8253205 89.0026596,42 84.518617,42 L84.518617,42 L72,42 L72,77 L86.1462766,77 Z M85.1590909,56 L81,56 L81,48 L84.9090909,48 C86.6969697,48 87.9924242,48.3214286 88.7954545,48.9642857 C89.5984848,49.6071429 90,50.6587302 90,52.1190476 C90,53.3888889 89.6287879,54.3492063 88.8863636,55 C88.1439394,55.6507937 86.9015152,55.984127 85.1590909,56 L85.1590909,56 Z M85.3864169,70 L80,70 L80,62 L85.7611241,62 C88.5870414,62.0152818 90,63.4135626 90,66.1948424 C90,67.4021012 89.6018735,68.3381089 88.8056206,69.0028653 C88.0093677,69.6676218 86.8696331,70 85.3864169,70 L85.3864169,70 Z M127.30507,77 C130.278846,76.9839744 132.973339,76.2588141 135.388549,74.8245192 C137.803759,73.3902244 139.676136,71.4030449 141.005682,68.8629808 C142.335227,66.3229167 143,63.4503205 143,60.2451923 L143,60.2451923 L143,58.6346154 C142.984266,55.4615385 142.295892,52.5969551 140.934878,50.0408654 C139.573864,47.4847756 137.681818,45.505609 135.258741,44.1033654 C132.835664,42.7011218 130.105769,42 127.069056,42 L127.069056,42 L116,42 L116,77 L127.30507,77 Z M126.804598,70 L124,70 L124,48 L126.712644,48 C129.088123,48 130.896552,48.8575592 132.137931,50.5726776 C133.37931,52.287796 134,54.8364299 134,58.2185792 L134,58.2185792 L134,59.7333333 C134,63.1315118 133.37931,65.6921676 132.137931,67.4153005 C130.896552,69.1384335 129.118774,70 126.804598,70 L126.804598,70 Z M170.952239,77 L170.952239,70.5096154 L155.38209,70.5096154 L155.38209,62.1682692 L168.564179,62.1682692 L168.564179,55.8942308 L155.38209,55.8942308 L155.38209,48.5144231 L171,48.5144231 L171,42 L147,42 L147,77 L170.952239,77 Z M188.323171,77 C192.258711,77 195.355401,76.1256684 197.61324,74.3770053 C199.87108,72.6283422 201,70.2219251 201,67.157754 C201,63.3235294 199.149826,60.315508 195.449477,58.1336898 C193.928571,57.2352941 191.984321,56.3970588 189.616725,55.618984 C187.249129,54.8409091 185.594948,54.0868984 184.654181,53.3569519 C183.713415,52.6270053 183.243031,51.8128342 183.243031,50.9144385 C183.243031,49.8877005 183.670296,49.0414439 184.524826,48.3756684 C185.379355,47.709893 186.543554,47.3770053 188.017422,47.3770053 C189.47561,47.3770053 190.631969,47.7700535 191.486498,48.5561497 C192.341028,49.342246 192.768293,50.4491979 192.768293,51.8770053 L192.768293,51.8770053 L201,51.8770053 C201,49.7433155 200.459059,47.8462567 199.377178,46.1858289 C198.295296,44.5254011 196.77831,43.2459893 194.82622,42.3475936 C192.874129,41.4491979 190.667247,41 188.205575,41 C185.681185,41 183.407666,41.4131016 181.385017,42.2393048 C179.362369,43.065508 177.798345,44.2205882 176.692944,45.7045455 C175.587544,47.1885027 175.034843,48.9010695 175.034843,50.842246 C175.034843,54.7406417 177.253484,57.8048128 181.690767,60.0347594 C183.054878,60.7245989 184.810976,61.4385027 186.959059,62.1764706 C189.107143,62.9144385 190.608449,63.6283422 191.462979,64.3181818 C192.317509,65.0080214 192.744774,65.9705882 192.744774,67.2058824 C192.744774,68.2967914 192.348868,69.1430481 191.557056,69.7446524 C190.765244,70.3462567 189.687282,70.6470588 188.323171,70.6470588 C186.190767,70.6470588 184.650261,70.2018717 183.701655,69.3114973 C182.753049,68.421123 182.278746,67.0374332 182.278746,65.1604278 L182.278746,65.1604278 L174,65.1604278 C174,67.4705882 174.56838,69.5120321 175.705139,71.2847594 C176.841899,73.0574866 178.535279,74.4532086 180.785279,75.4719251 C183.035279,76.4906417 185.547909,77 188.323171,77 Z M214,77 L214,42 L206,42 L206,77 L214,77 Z M234.236885,77 C237.184426,77 239.894262,76.5591182 242.366393,75.6773547 C244.838525,74.7955912 246.716393,73.6332665 248,72.1903808 L248,72.1903808 L248,57.8096192 L233.856557,57.8096192 L233.856557,63.6052104 L239.656557,63.6052104 L239.656557,69.0400802 C238.594809,70.0180361 236.978415,70.507014 234.807377,70.507014 C232.271858,70.507014 230.413798,69.6292585 229.233197,67.8737475 C228.052596,66.1182365 227.462295,63.492986 227.462295,59.997996 L227.462295,59.997996 L227.462295,57.8817635 C227.478142,54.5470942 228.056557,51.9819639 229.197541,50.1863727 C230.338525,48.3907816 231.954918,47.492986 234.046721,47.492986 C235.789891,47.492986 237.136885,47.9098196 238.087705,48.743487 C239.038525,49.5771543 239.656557,50.9719439 239.941803,52.9278557 L239.941803,52.9278557 L247.97623,52.9278557 C247.580055,48.9679359 246.189481,45.98998 243.804508,43.993988 C241.419536,41.997996 238.071858,41 233.761475,41 C230.813934,41 228.218989,41.6933868 225.976639,43.0801603 C223.73429,44.4669339 222.010929,46.4468938 220.806557,49.0200401 C219.602186,51.5931864 219,54.6032064 219,58.0501002 L219,58.0501002 L219.02377,61.0801603 C219.213934,66.0821643 220.663934,69.9859719 223.37377,72.7915832 C226.083607,75.5971944 229.704645,77 234.236885,77 Z M261.370888,77 L261.370888,55.2211538 L273.676809,77 L282,77 L282,42 L273.652961,42 L273.652961,63.7788462 L261.370888,42 L253,42 L253,77 L261.370888,77 Z M12.4476338,121 C14.2112749,121 15.7945436,120.807744 17.1974399,120.423231 C18.6003362,120.038718 19.9751746,119.445928 21.321955,118.64486 L21.321955,118.64486 L22.9573313,120.495327 L32,120.495327 L26.6609775,114.367156 C28.8414792,111.515354 29.93173,107.726302 29.93173,103 L29.93173,103 L23.1256788,103 C23.1256788,105.098798 22.6847686,107.029372 21.802948,108.791722 L21.802948,108.791722 L16.4158262,102.615487 L18.2435997,101.341789 C21.5303853,99.034713 23.1737781,96.3911883 23.1737781,93.411215 C23.1737781,91.024032 22.3079907,89.0253672 20.5764158,87.4152203 C18.844841,85.8050734 16.6563227,85 14.0108611,85 C11.0607706,85 8.67183863,85.8691589 6.84406517,87.6074766 C5.0162917,89.3457944 4.10240497,91.6248331 4.10240497,94.4445928 C4.10240497,95.7423231 4.3709594,97 4.90806827,98.2176235 C5.44517714,99.435247 6.18670804,100.716956 7.13266098,102.06275 L7.13266098,102.06275 L7.06051202,102.110814 C4.67158004,103.857143 3.0642617,105.387183 2.23855702,106.700935 C1.41285234,108.014686 1,109.480641 1,111.098798 C1,114.06275 2.04215154,116.453939 4.12645462,118.272363 C6.21075769,120.090788 8.9844841,121 12.4476338,121 Z M12.974026,98 C11.6580087,96.4392419 11,95.1125975 11,94.0200669 C11,93.1148272 11.2770563,92.3851728 11.8311688,91.8311037 C12.3852814,91.2770346 13.1471861,91 14.1168831,91 C14.9307359,91 15.6147186,91.2653289 16.1688312,91.7959866 C16.7229437,92.3266444 17,92.9509476 17,93.6688963 C17,94.4336678 16.8181818,95.0657748 16.4545455,95.5652174 C16.0909091,96.06466 15.5108225,96.548495 14.7142857,97.0167224 L14.7142857,97.0167224 L12.974026,98 Z M12.902439,114 C11.796748,114 10.8699187,113.59882 10.1219512,112.79646 C9.37398374,111.9941 9,111.018682 9,109.870206 C9,108.485742 9.46341463,107.242871 10.3902439,106.141593 L10.3902439,106.141593 L10.6097561,106 L17,113.032448 C15.699187,113.677483 14.3333333,114 12.902439,114 Z M58.3050699,120 C61.2788462,119.983974 63.9733392,119.258814 66.388549,117.824519 C68.8037587,116.390224 70.6761364,114.403045 72.0056818,111.862981 C73.3352273,109.322917 74,106.450321 74,103.245192 L74,103.245192 L74,101.634615 C73.9842657,98.4615385 73.2958916,95.5969551 71.9348776,93.0408654 C70.5738636,90.4847756 68.6818182,88.505609 66.2587413,87.1033654 C63.8356643,85.7011218 61.1057692,85 58.0690559,85 L58.0690559,85 L47,85 L47,120 L58.3050699,120 Z M58.8045977,114 L56,114 L56,92 L58.7126437,92 C61.0881226,92 62.8965517,92.8575592 64.137931,94.5726776 C65.3793103,96.287796 66,98.8364299 66,102.218579 L66,102.218579 L66,103.733333 C66,107.131512 65.3793103,109.692168 64.137931,111.415301 C62.8965517,113.138434 61.1187739,114 58.8045977,114 L58.8045977,114 Z M102.952239,120 L102.952239,113.509615 L87.3820896,113.509615 L87.3820896,105.168269 L100.564179,105.168269 L100.564179,98.8942308 L87.3820896,98.8942308 L87.3820896,91.5144231 L103,91.5144231 L103,85 L79,85 L79,120 L102.952239,120 Z M124.470588,120 L136,85 L126.776471,85 L119.952941,110.480769 L113.152941,85 L104,85 L115.435294,120 L124.470588,120 Z M161.952239,120 L161.952239,113.509615 L146.38209,113.509615 L146.38209,105.168269 L159.564179,105.168269 L159.564179,98.8942308 L146.38209,98.8942308 L146.38209,91.5144231 L162,91.5144231 L162,85 L138,85 L138,120 L161.952239,120 Z M189,120 L189,113.509615 L174.391892,113.509615 L174.391892,85 L166,85 L166,120 L189,120 Z M206.047096,121 C208.967033,121 211.569074,120.290107 213.853218,118.870321 C216.137363,117.450535 217.899529,115.425134 219.139717,112.794118 C220.379906,110.163102 221,107.139037 221,103.721925 L221,103.721925 L221,102.109626 C220.984301,98.7406417 220.344584,95.7526738 219.080848,93.1457219 C217.817111,90.5387701 216.047096,88.5294118 213.770801,87.1176471 C211.494505,85.7058824 208.904239,85 206,85 C203.064364,85 200.446625,85.7139037 198.146782,87.1417112 C195.846939,88.5695187 194.080848,90.5949198 192.848509,93.2179144 C191.61617,95.8409091 191,98.868984 191,102.302139 L191,102.302139 L191,104.275401 C191.062794,107.580214 191.72606,110.508021 192.989796,113.058824 C194.253532,115.609626 196.015699,117.570856 198.276295,118.942513 C200.536892,120.314171 203.127159,121 206.047096,121 Z M206.546429,114 C204.379762,114 202.747024,113.06899 201.648214,111.206969 C200.549405,109.344949 200,106.68145 200,103.216473 L200,103.216473 L200.023214,100.61774 C200.255357,94.2059134 202.414286,91 206.5,91 C208.589286,91 210.19494,91.9107709 211.316964,93.7323126 C212.438988,95.5538543 213,98.2214009 213,101.734952 L213,101.734952 L213,103.362196 C212.984524,106.794791 212.419643,109.425906 211.305357,111.255544 C210.191071,113.085181 208.604762,114 206.546429,114 Z M234.269634,120 L234.269634,108.125 L239.54712,108.125 C243.725131,108.125 247.01178,107.103365 249.407068,105.060096 C251.802356,103.016827 253,100.288462 253,96.875 C253,94.5673077 252.446335,92.5040064 251.339005,90.6850962 C250.231675,88.8661859 248.668848,87.4639423 246.650524,86.4783654 C244.632199,85.4927885 242.311518,85 239.688482,85 L239.688482,85 L226,85 L226,120 L234.269634,120 Z M239.23918,102 L234,102 L234,92 L239.330296,92 C240.772969,92.015873 241.911921,92.5079365 242.747153,93.4761905 C243.582384,94.4444444 244,95.7380952 244,97.3571429 C244,98.8333333 243.593774,99.9761905 242.781321,100.785714 C241.968869,101.595238 240.788155,102 239.23918,102 L239.23918,102 Z M266.26145,120 L266.26145,111.826923 L265.461196,95.0721154 L273.76972,120 L279.23028,120 L287.515267,95.0961538 L286.715013,111.826923 L286.715013,120 L295,120 L295,85 L284.125954,85 L276.5,109.350962 L268.850509,85 L258,85 L258,120 L266.26145,120 Z M323.952239,120 L323.952239,113.509615 L308.38209,113.509615 L308.38209,105.168269 L321.564179,105.168269 L321.564179,98.8942308 L308.38209,98.8942308 L308.38209,91.5144231 L324,91.5144231 L324,85 L300,85 L300,120 L323.952239,120 Z M336.370888,120 L336.370888,98.2211538 L348.676809,120 L357,120 L357,85 L348.652961,85 L348.652961,106.778846 L336.370888,85 L328,85 L328,120 L336.370888,120 Z M378.586689,120 L378.586689,91.5144231 L389,91.5144231 L389,85 L360,85 L360,91.5144231 L370.222679,91.5144231 L370.222679,120 L378.586689,120 Z" id="WEBDESIGN&amp;DEVELOPMENT" fill="#F9F9F9" fill-rule="nonzero"></path>
        </g>
    </g>
</svg>