<?xml version="1.0" encoding="UTF-8"?>
<svg width="93px" height="28px" viewBox="0 0 93 28" version="1.1" xmlns="http://www.w3.org/2000/svg" xmlns:xlink="http://www.w3.org/1999/xlink">
    <title>Group 6</title>
    <g id="Portfolio-ENG" stroke="none" stroke-width="1" fill="none" fill-rule="evenodd">
        <g id="Group-6">
            <rect id="Rectangle" stroke="#9CFF12" stroke-width="3" x="1.5" y="1.5" width="90" height="25"></rect>
            <path d="M20.7504883,19 L20.7504883,17.1542969 L16.293457,17.1542969 L16.293457,14.7822266 L20.0668945,14.7822266 L20.0668945,12.9980469 L16.293457,12.9980469 L16.293457,10.8994141 L20.7641602,10.8994141 L20.7641602,9.046875 L13.894043,9.046875 L13.894043,19 L20.7504883,19 Z M34.1274414,19 L34.1274414,16.375 L35.1118164,15.2949219 L37.230957,19 L40.074707,19 L36.7114258,13.4492188 L40.074707,9.046875 L37.1079102,9.046875 L34.9614258,12.1708984 L34.1274414,13.4355469 L34.1274414,9.046875 L31.7280273,9.046875 L31.7280273,19 L34.1274414,19 Z M53.0825195,19 L53.0825195,15.0351562 L56.9516602,15.0351562 L56.9516602,13.1894531 L53.0825195,13.1894531 L53.0825195,10.8994141 L57.3413086,10.8994141 L57.3413086,9.046875 L50.6831055,9.046875 L50.6831055,19 L53.0825195,19 Z M70.7387695,19 L70.7387695,16.6757812 L70.5063477,11.9111328 L72.9194336,19 L74.5053711,19 L76.9116211,11.9179688 L76.6791992,16.6757812 L76.6791992,19 L79.0854492,19 L79.0854492,9.046875 L75.9272461,9.046875 L73.7124023,15.9716797 L71.4907227,9.046875 L68.3393555,9.046875 L68.3393555,19 L70.7387695,19 Z" id="EKFM" fill="#9CFF12" fill-rule="nonzero"></path>
        </g>
    </g>
</svg>