<?xml version="1.0" encoding="UTF-8"?><svg id="Layer_1" xmlns="http://www.w3.org/2000/svg" viewBox="0 0 336.56 114.97"><defs><style>.cls-1{fill:#fff;}</style></defs><g><path class="cls-1" d="M225.29,97.18c-.81,.09-2.74,.38-5.8,.87-.75,.13-1.19,.26-1.3,.4-.05,.19-.18,.28-.37,.28-.16,0-.42-.2-.77-.6-.4-.37-.62-.76-.66-1.16,0-.35,.17-.42,.52-.19,.13,.27,.41,.4,.85,.4,.65,0,3.07-.27,7.25-.8,.25-.04,.47-.22,.65-.54,.49,.29,.93,.62,1.32,.98,.23,.22,.35,.42,.35,.6,0,.29-.19,.44-.57,.44-.2,0-.32,.06-.37,.17-1.59,4.61-4.53,7.8-8.82,9.57-.32,0-.41-.19-.26-.57,4.06-2.05,6.74-5.27,8.03-9.66,.11-.16,.1-.22-.04-.18Z"/><path class="cls-1" d="M227.89,108.84c2.43-1.76,3.57-4.03,3.42-6.8-.54-.33-.58-.59-.1-.76,.97-.05,1.4,.15,1.28,.6,.78-.68,1.49-1.4,2.14-2.16,.28-.16,.29-.22,.05-.18-3.68,.49-5.63,.85-5.87,1.08-.15,.18-.33,.26-.53,.26-.12,0-.32-.12-.6-.36-.35-.31-.55-.67-.6-1.07,0-.44,.15-.55,.46-.33,.23,.27,.56,.38,.99,.34,1.55-.18,3.67-.43,6.36-.74,.16-.04,.38-.15,.66-.34,.38,.3,.67,.59,.87,.87,.18,.26,.27,.47,.27,.64,0,.2-.18,.28-.54,.24-.21,0-.44,.12-.69,.37-.5,.45-1.5,1.13-3,2.04-.27,3.18-1.73,5.47-4.38,6.85-.33,0-.4-.19-.21-.57Z"/><path class="cls-1" d="M243.26,100.44v7.58c0,.52-.13,.78-.39,.78-.17,0-.38-.17-.62-.51-.23-.33-.31-.7-.22-1.09,.11-.45,.16-.83,.16-1.13v-5.74c-2.11,2-4.1,3.41-5.98,4.23-.44,0-.52-.22-.24-.65,3.95-2.5,6.88-5.17,8.79-8.02,.13-.18,.18-.35,.14-.52-.02-.08-.17-.2-.43-.36-.29-.24-.23-.42,.18-.53,.68,.05,1.19,.34,1.51,.86,.34,.34,.5,.63,.5,.85,0,.29-.18,.42-.54,.37-.13,0-.28,.07-.43,.21-.7,.95-1.57,1.85-2.61,2.71,.85,.38,.9,.69,.17,.94Z"/><path class="cls-1" d="M253.63,99.39c.15,4.26-1.27,7.28-4.27,9.07-.29,0-.38-.16-.28-.49,2.44-1.99,3.58-4.83,3.43-8.51-2.86,.31-4.34,.57-4.43,.79-.11,.19-.25,.29-.43,.29-.17,0-.33-.09-.48-.27-.67-.69-.99-1.28-.95-1.75,.08-.4,.26-.44,.55-.12,.19,.4,.44,.6,.76,.6,.89,0,2.55-.13,4.97-.38v-2.73c0-.4-.29-.68-.88-.85-.22-.23-.21-.41,.02-.53,.37-.14,.81-.09,1.32,.13,.75,.31,1.11,.64,1.07,.99,0,.24-.1,.36-.29,.36-.07,.04-.11,.21-.11,.5v2.04c2.29,0,3.58-.22,3.86-.67,.4,.1,.76,.26,1.08,.49,.48,.3,.71,.62,.71,.95,0,.25-.24,.33-.71,.24-1.41-.22-3.06-.27-4.94-.14Z"/><path class="cls-1" d="M264.49,106.13c-.41-.48-.62-.77-.62-.86,0-.18,.15-.31,.46-.4v-7.03c-.04-.38-.1-.66-.19-.83-.07-.12-.28-.22-.64-.3-.26-.25-.27-.47-.04-.67,.79,0,1.43,.17,1.92,.5,.28,.22,.42,.42,.42,.61,0,.25-.15,.46-.46,.64v6.78c2.13-1.14,4.06-2.76,5.79-4.87,.37-.11,.53,.02,.48,.41-1.14,1.74-2.7,3.35-4.69,4.85-.98,.64-1.47,1.01-1.47,1.13,0,.34-.11,.51-.33,.51-.17,0-.38-.15-.64-.45Zm-2.06-6.66c-.72,3.3-2.22,6.01-4.49,8.11-.35,.05-.48-.1-.39-.45,1.88-2.14,3.08-4.71,3.61-7.71,.04-.44,.03-.68-.01-.73-.09-.11-.24-.18-.45-.22-.27-.2-.27-.4,0-.6,.68-.05,1.27,.13,1.77,.53,.3,.23,.45,.47,.45,.71,0,.25-.16,.37-.49,.37h0Z"/><path class="cls-1" d="M279.88,97.18c-.81,.09-2.74,.38-5.8,.87-.75,.13-1.19,.26-1.3,.4-.05,.19-.18,.28-.37,.28-.16,0-.42-.2-.77-.6-.4-.37-.62-.76-.66-1.16,0-.35,.17-.42,.52-.19,.13,.27,.41,.4,.85,.4,.65,0,3.07-.27,7.25-.8,.25-.04,.47-.22,.65-.54,.49,.29,.93,.62,1.32,.98,.23,.22,.35,.42,.35,.6,0,.29-.19,.44-.57,.44-.2,0-.32,.06-.37,.17-1.59,4.61-4.53,7.8-8.82,9.57-.32,0-.41-.19-.26-.57,4.06-2.05,6.74-5.27,8.03-9.66,.11-.16,.1-.22-.04-.18Z"/><path class="cls-1" d="M284.01,108.84c2.43-1.76,3.57-4.03,3.42-6.8-.54-.33-.58-.59-.1-.76,.97-.05,1.4,.15,1.28,.6,.78-.68,1.49-1.4,2.14-2.16,.28-.16,.29-.22,.05-.18-3.68,.49-5.63,.85-5.87,1.08-.15,.18-.33,.26-.53,.26-.12,0-.32-.12-.6-.36-.35-.31-.55-.67-.6-1.07,0-.44,.15-.55,.46-.33,.23,.27,.56,.38,.99,.34,1.55-.18,3.67-.43,6.36-.74,.16-.04,.38-.15,.66-.34,.38,.3,.67,.59,.87,.87,.18,.26,.27,.47,.27,.64,0,.2-.18,.28-.54,.24-.21,0-.44,.12-.69,.37-.5,.45-1.5,1.13-3,2.04-.27,3.18-1.73,5.47-4.38,6.85-.33,0-.4-.19-.21-.57Z"/><path class="cls-1" d="M295.4,104.57c.25,.71,.55,1.07,.9,1.07,.43,0,1.65-.75,3.66-2.25,2.02-1.51,4.06-3.41,6.1-5.7,.44-.16,.6,0,.47,.49-2.68,3.48-5.81,6.37-9.4,8.68-.03,.14-.07,.27-.11,.37-.06,.15-.19,.23-.37,.23-.2,0-.48-.25-.83-.74-.71-.66-1.02-1.3-.94-1.94,0-.32,.18-.39,.53-.21Zm2.74-5.67c0,.56-.25,.84-.74,.84-.32,0-.54-.32-.67-.97-.08-.35-.32-.79-.72-1.3-.23-.26-.54-.56-.94-.9-.24-.39-.16-.56,.24-.51,1.04,.37,1.78,.84,2.22,1.39,.41,.53,.62,1.01,.62,1.46Z"/><path class="cls-1" d="M312.64,102.15c-.79-.81-1.82-1.37-3.06-1.67-.81,1.04-1.75,2-2.83,2.89-.34,0-.44-.18-.3-.55,2.1-2.09,3.49-4.4,4.18-6.93,.12-.34-.06-.58-.54-.73-.22-.19-.21-.39,.01-.59,.48-.05,.89,.02,1.22,.21,.6,.35,.9,.67,.9,.96,0,.25-.11,.37-.33,.37-.05,0-.09,.06-.14,.17-.12,.27-.24,.5-.39,.69,1.14-.09,2.31-.2,3.52-.33,.16-.15,.33-.35,.53-.61,.29,.11,.59,.3,.9,.58,.27,.21,.41,.41,.41,.6,0,.22-.11,.36-.33,.43-.16,.04-.31,.21-.44,.52-.46,1.17-1.07,2.36-1.83,3.58,.46,.33,.67,.74,.63,1.23-.05,.4-.2,.6-.45,.6-.2,0-.49-.25-.85-.74-1.71,2.57-3.75,4.47-6.15,5.71-.36,0-.47-.19-.33-.56,2.61-1.79,4.5-3.73,5.67-5.82h0Zm.57-1.01c.66-1.14,1.21-2.31,1.63-3.52,.07-.1,.07-.16,.01-.17-1.25,.09-2.38,.18-3.4,.27-.2-.06-.29-.12-.29-.2-.43,1.01-.87,1.79-1.32,2.32,1.43,.24,2.55,.67,3.37,1.29h0Z"/><path class="cls-1" d="M328.46,95.47c0,.34-.15,.51-.45,.51-.2,0-.36-.06-.46-.18-.16-.19-.32-.42-.48-.69-.26-.34-.61-.66-1.07-.98-.15-.34-.09-.51,.18-.51,.93,.19,1.56,.47,1.89,.86,.26,.31,.39,.64,.39,.99Zm-2.32,.13c.39,.31,.59,.69,.59,1.15,0,.43-.17,.64-.51,.64-.22,0-.5-.32-.85-.95-.17-.3-.57-.75-1.18-1.33-.1-.21-.04-.38,.18-.49,.59,.19,1.18,.51,1.77,.97Zm-4.66,2.16c0,.43-.21,.64-.62,.64-.22,0-.46-.25-.74-.75-.38-.63-1.03-1.05-1.93-1.27-.21-.3-.17-.5,.12-.6,1.24,0,2.15,.33,2.72,.99,.3,.35,.45,.68,.45,.99h0Zm-1.73,3.49c0,.18-.05,.33-.16,.46-.1,.12-.24,.18-.4,.18-.21,0-.48-.26-.8-.79-.42-.56-1.04-.98-1.87-1.24-.29-.29-.27-.49,.06-.6,1.21,0,2.15,.37,2.82,1.1,.24,.28,.36,.57,.36,.88h0Zm1.21,5.34c-.52,.41-.81,.69-.88,.85-.1,.24-.25,.36-.43,.36-.11,0-.35-.12-.72-.36-.29-.19-.53-.4-.73-.63-.34-.4-.49-.93-.45-1.61,0-.33,.18-.38,.53-.15,.18,.62,.42,.92,.72,.92s.75-.17,1.3-.52c3.17-2.22,5.84-4.73,7.99-7.5,.41-.16,.59-.02,.55,.4-1.91,2.81-4.54,5.55-7.9,8.23Z"/></g><path class="cls-1" d="M17.16,81.65H7.6v-.68c.66-.08,1.34-.37,2.02-.88V18.2c-.79-.53-1.47-.81-2.02-.84v-.68h15.91l1.71,20.34h-.71l-1.63-5.23c-.69-2.21-1.47-4.37-2.34-6.47-.87-2.1-1.55-3.37-2.04-3.8-.49-.43-1.09-.64-1.8-.64h-1.55v26.05h1.23c.87,0,1.51-.26,1.92-.78,.41-.52,.93-1.82,1.57-3.9l1.39-4.56h.67v24.37h-.67l-1.9-6.27c-.69-2.29-1.17-3.64-1.45-4.06-.28-.41-.79-.62-1.53-.62h-1.23v28.97c.37,.45,1.04,.75,2.02,.88v.68Z"/><path class="cls-1" d="M41.14,18.2v61.89c.53,.48,1.2,.77,2.02,.88v.68h-9.48v-.68c.77-.11,1.41-.4,1.94-.88V18.2c-.61-.51-1.26-.79-1.94-.84v-.68h9.48v.68c-.79,.05-1.47,.33-2.02,.84Z"/><path class="cls-1" d="M68.18,66.19l-1.71-47.99c-.66-.53-1.32-.81-1.98-.84v-.68h8.65v.68c-1,.08-1.69,.36-2.06,.84v63.45h-4.13l-5.75-28.41c-1.06-5.22-1.85-9.87-2.38-13.94l-2.5-19.42,2.1,60.21c.66,.56,1.34,.85,2.02,.88v.68h-8.61v-.68c.69-.03,1.36-.32,2.02-.88V18.2c-.63-.53-1.31-.81-2.02-.84v-.68h7.3l4.44,21.02c.82,3.89,1.59,8.2,2.3,12.95l2.3,15.54Z"/><path class="cls-1" d="M93.12,16.2l4.8,63.89c.37,.53,.87,.83,1.51,.88v.68h-8.37v-.68c.71-.19,1.14-.48,1.27-.88l-.48-13.07h-4.2l-.67,13.07c.48,.48,.91,.77,1.31,.88v.68h-6.82v-.68c.56-.11,.97-.4,1.23-.88l4.88-63.89h5.55Zm-1.51,46.63l-1.94-42.51-2.02,42.51h3.97Z"/><path class="cls-1" d="M117.14,16.68v.68c-.71,.03-1.36,.31-1.94,.84v59.25h1.78c2.25,0,4.42-4.21,6.51-12.63l1.11-4.59h.52l-1.15,21.42h-16.3v-.68c.85-.13,1.52-.43,2.02-.88V18.2c-.63-.53-1.31-.81-2.02-.84v-.68h9.48Z"/><path class="cls-1" d="M158.3,81.17h-9.56v-.67c.66-.08,1.34-.37,2.02-.87V18.19c-.79-.53-1.47-.81-2.02-.83v-.67h15.91l1.71,20.19h-.71l-1.63-5.2c-.69-2.19-1.47-4.34-2.34-6.43-.87-2.09-1.55-3.35-2.04-3.77-.49-.42-1.09-.63-1.8-.63h-1.55v25.86h1.23c.87,0,1.51-.26,1.92-.77,.41-.52,.93-1.8,1.57-3.87l1.39-4.52h.67v24.2h-.67l-1.9-6.23c-.69-2.27-1.17-3.62-1.45-4.03-.28-.41-.79-.61-1.53-.61h-1.23v28.76c.37,.45,1.04,.74,2.02,.87v.67Z"/><path class="cls-1" d="M184.84,16.2l4.8,63.42c.37,.53,.87,.82,1.51,.87v.67h-8.37v-.67c.71-.19,1.14-.48,1.27-.87l-.48-12.97h-4.2l-.67,12.97c.48,.48,.91,.77,1.31,.87v.67h-6.82v-.67c.56-.11,.97-.4,1.23-.87l4.88-63.42h5.55Zm-1.51,46.29l-1.94-42.2-2.02,42.2h3.97Z"/><path class="cls-1" d="M214.51,65.82l-1.71-47.64c-.66-.53-1.32-.81-1.98-.83v-.67h8.65v.67c-1,.08-1.69,.36-2.06,.83v62.99h-4.13l-5.75-28.2c-1.06-5.18-1.85-9.8-2.38-13.84l-2.5-19.28,2.1,59.78c.66,.56,1.34,.85,2.02,.87v.67h-8.61v-.67c.69-.03,1.36-.32,2.02-.87V18.19c-.63-.53-1.31-.81-2.02-.83v-.67h7.3l4.44,20.86c.82,3.86,1.59,8.14,2.3,12.85l2.3,15.43Z"/><path class="cls-1" d="M234.62,79.63V20.41h-1.11c-.4,0-.73,.11-1.01,.34-.28,.22-.69,.99-1.23,2.28-.54,1.3-1.14,3.25-1.8,5.85-.66,2.6-1.3,5.44-1.9,8.51h-.67l1.07-20.71h18.8l1.23,20.71h-.67c-1.82-7.88-3.13-12.68-3.91-14.4-.78-1.72-1.59-2.58-2.44-2.58h-.87v59.22c.61,.48,1.28,.77,2.02,.87v.67h-9.56v-.67c.82-.11,1.51-.4,2.06-.87Z"/><path class="cls-1" d="M266.66,16.2l4.8,63.42c.37,.53,.87,.82,1.51,.87v.67h-8.37v-.67c.71-.19,1.14-.48,1.27-.87l-.48-12.97h-4.2l-.67,12.97c.48,.48,.91,.77,1.31,.87v.67h-6.82v-.67c.56-.11,.97-.4,1.23-.87l4.88-63.42h5.55Zm-1.51,46.29l-1.94-42.2-2.02,42.2h3.97Z"/><path class="cls-1" d="M280.43,66.06l5.91-6.9,.52,.48c-.61,1.64-.91,4.43-.91,8.37s.15,6.66,.44,7.77c.29,1.11,.95,1.67,1.98,1.67,1.98,0,2.97-3.07,2.97-9.2,0-3.46-.3-6.39-.89-8.77s-1.75-5.09-3.47-8.13c-1.88-3.36-3.15-5.8-3.83-7.34s-1.3-3.59-1.86-6.17c-.57-2.58-.85-5.22-.85-7.91,0-9.15,2.66-13.72,7.97-13.72s8.09,5.09,8.09,15.27v2.58l-5.99,4.64-.4-.48c.61-2.06,.91-4.32,.91-6.78,0-3.57-.13-6.29-.4-8.15-.26-1.86-.95-2.8-2.06-2.8-1.75,0-2.62,2.71-2.62,8.13,0,4.79,.32,8.22,.95,10.29,.63,2.08,1.96,4.85,3.97,8.31,2.59,4.47,4.24,8.08,4.94,10.83,.7,2.75,1.05,5.83,1.05,9.24,0,9.57-2.84,14.36-8.53,14.36-5.26,0-7.89-4.24-7.89-12.73v-2.86Z"/><path class="cls-1" d="M316.84,50.71v28.92c.61,.48,1.3,.77,2.06,.87v.67h-9.52v-.67c1.03-.16,1.68-.45,1.94-.87v-28.6l-5.51-32.84c-.08-.45-.75-.73-2.02-.83v-.67h9.48v.67c-.98,.05-1.63,.33-1.94,.83l3.53,29.35,2.74-29.35c-.74-.5-1.41-.78-2.02-.83v-.67h8.53v.67c-.98,.05-1.67,.33-2.06,.83l-5.2,32.53Z"/><rect class="cls-1" x="5.63" y="87.6" width="325" height="2.51"/><path class="cls-1" d="M325.87,75.66c.5,0,.99,.13,1.47,.39,.48,.26,.85,.63,1.12,1.11,.27,.48,.4,.98,.4,1.5s-.13,1.01-.39,1.49c-.26,.48-.63,.85-1.11,1.11-.47,.26-.97,.39-1.49,.39s-1.01-.13-1.49-.39-.84-.63-1.11-1.11c-.26-.48-.4-.97-.4-1.49s.13-1.02,.4-1.5c.27-.48,.64-.85,1.12-1.11,.48-.26,.97-.39,1.47-.39Zm0,.5c-.42,0-.83,.11-1.23,.32-.4,.22-.71,.52-.93,.92-.22,.4-.34,.82-.34,1.25s.11,.84,.33,1.24c.22,.4,.53,.7,.93,.92,.4,.22,.81,.33,1.24,.33s.84-.11,1.24-.33c.4-.22,.7-.53,.92-.92,.22-.4,.33-.81,.33-1.24s-.11-.85-.34-1.25c-.22-.4-.53-.71-.93-.92-.4-.22-.81-.32-1.23-.32Zm.96,2.98l.49,.14c-.08,.33-.25,.59-.51,.79-.26,.2-.57,.3-.94,.3-.47,0-.84-.15-1.13-.45-.29-.3-.44-.72-.44-1.25,0-.35,.07-.65,.2-.91s.32-.45,.57-.58,.52-.2,.84-.2c.35,0,.64,.08,.88,.25,.23,.17,.39,.4,.48,.68l-.47,.11c-.08-.2-.2-.35-.35-.45-.15-.1-.34-.16-.55-.16-.3,0-.55,.11-.75,.33-.2,.22-.3,.53-.3,.93s.09,.71,.28,.92c.19,.21,.43,.31,.72,.31,.24,0,.45-.07,.63-.21,.18-.14,.3-.32,.36-.56Z"/></svg>